<?xml version="1.0" encoding="UTF-8"?>
<svg width="986px" height="109px" viewBox="0 0 986 109" version="1.1" xmlns="http://www.w3.org/2000/svg" xmlns:xlink="http://www.w3.org/1999/xlink">
    <title>Introduction备份</title>
    <g id="第二页" stroke="none" stroke-width="1" fill="none" fill-rule="evenodd">
        <path d="M33,107 L33,0 L2.27373675e-13,0 L2.27373675e-13,107 L33,107 Z M84.7186109,108 L84.7186109,70.4309392 C84.7186109,63.3100061 85.8382309,58.3744629 88.0774711,55.6243094 C90.3167112,52.8741559 93.2374592,51.4990792 96.839715,51.4990792 C100.101217,51.4990792 102.632532,52.5181093 104.43366,54.5561694 C106.234788,56.5942296 107.135352,60.0687538 107.135352,64.9797422 L107.135352,64.9797422 L107.135352,108 L137,108 L137,58.2762431 C137,47.9631676 134.675571,40.3388582 130.026714,35.4033149 C125.377857,30.4677716 118.940042,28 110.713268,28 C104.628376,28 99.4683882,29.1172498 95.2333037,31.3517495 C90.9982191,33.5862492 86.8118136,37.3063229 82.6740873,42.5119705 L82.6740873,42.5119705 L82.6740873,29.7679558 L55,29.7679558 L55,108 L84.7186109,108 Z M187.478043,109 C193.833542,109 200.674195,108.195302 208,106.585906 L208,106.585906 L205.816813,86.0295302 C201.887077,87.2975391 198.830615,87.9315436 196.647428,87.9315436 C194.221665,87.9315436 192.52363,87.1024609 191.553325,85.4442953 C190.922627,84.3713647 190.607277,82.1767338 190.607277,78.8604027 L190.607277,78.8604027 L190.607277,51.2812081 L206.908407,51.2812081 L206.908407,29.5543624 L190.607277,29.5543624 L190.607277,0 L160.915935,15.2892617 L160.915935,29.5543624 L150,29.5543624 L150,51.2812081 L160.915935,51.2812081 L160.915935,78.6409396 C160.915935,87.3219239 161.752823,93.6010067 163.4266,97.4781879 C165.100376,101.355369 167.683814,104.244966 171.176913,106.14698 C174.670013,108.048993 180.103722,109 187.478043,109 Z M251.843301,108 L251.843301,81.7753223 C251.843301,69.252302 253.375598,60.7071823 256.440191,56.1399632 C258.580542,52.8987109 261.596491,51.2780847 265.488038,51.2780847 C267.5311,51.2780847 270.303828,52.014733 273.80622,53.4880295 L273.80622,53.4880295 L283,32.1252302 C277.795056,29.3750767 273.003589,28 268.625598,28 C264.442185,28 260.927632,29.043585 258.081938,31.1307551 C255.236244,33.2179251 252.475678,37.0362185 249.800239,42.5856354 L249.800239,42.5856354 L249.800239,29.7679558 L222,29.7679558 L222,108 L251.843301,108 Z M329.354098,109 C343.312022,109 354.242486,105.193243 362.145492,97.5797297 C370.048497,89.9662162 374,80.2 374,68.2810811 C374,57.6756757 370.814481,48.7486486 364.443443,41.5 C356.51612,32.5 344.795355,28 329.281148,28 C315.712295,28 304.939891,31.8310811 296.963934,39.4932432 C288.987978,47.1554054 285,56.8972973 285,68.7189189 C285,81.4162162 289.717486,91.6810811 299.152459,99.5135135 C306.836612,105.837838 316.903825,109 329.354098,109 Z M329.53598,89 C325.362283,89 321.896195,87.3663664 319.137717,84.0990991 C316.379239,80.8318318 315,75.7867868 315,68.963964 C315,62.2372372 316.391232,57.2282282 319.173697,53.9369369 C321.956162,50.6456456 325.482217,49 329.751861,49 C333.781638,49 337.163772,50.6216216 339.898263,53.8648649 C342.632754,57.1081081 344,62.045045 344,68.6756757 C344,75.7867868 342.644748,80.951952 339.934243,84.1711712 C337.223739,87.3903904 333.757651,89 329.53598,89 Z M416.81095,109 C422.107784,109 426.914172,107.8783 431.230111,105.634899 C434.467066,103.927964 438.047334,100.636018 441.970915,95.7590604 L441.970915,95.7590604 L441.970915,107.244295 L470,107.244295 L470,0 L439.763901,0 L439.763901,37.1624161 C436.821215,34.0411633 433.449387,31.7002237 429.648417,30.1395973 C425.847448,28.5789709 421.617337,27.7986577 416.958084,27.7986577 C407.394354,27.7986577 399.510408,31.212528 393.306245,38.0402685 C387.102082,44.8680089 384,54.7194631 384,67.5946309 C384,79.1042506 386.807813,88.8825503 392.423439,96.9295302 C398.039065,104.97651 406.168235,109 416.81095,109 Z M426.632768,87 C423.05838,87 420.059322,85.531168 417.635593,82.5935039 C415.211864,79.6558399 414,75.0308399 414,68.7185039 C414,61.9691601 415.175141,57.1620735 417.525424,54.2972441 C419.875706,51.4324147 422.789077,50 426.265537,50 C430.231638,50 433.512241,51.4931102 436.107345,54.4793307 C438.702448,57.4655512 440,61.9934383 440,68.0629921 C440,74.7637795 438.72693,79.5951444 436.180791,82.5570866 C433.634652,85.5190289 430.451977,87 426.632768,87 Z M514.213713,109 C520.347284,109 525.519442,107.895028 529.730187,105.685083 C533.940932,103.475138 538.115168,99.7673419 542.252894,94.5616943 L542.252894,94.5616943 L542.252894,107.232044 L570,107.232044 L570,29 L540.281389,29 L540.281389,66.6427256 C540.281389,73.7636587 539.149599,78.699202 536.88602,81.4493554 C534.62244,84.1995089 531.713862,85.5745856 528.160285,85.5745856 C524.898783,85.5745856 522.367468,84.5432781 520.56634,82.480663 C518.765212,80.4180479 517.864648,76.9312462 517.864648,72.0202578 L517.864648,72.0202578 L517.864648,29 L488,29 L488,78.7974217 C488,89.0613874 490.324429,96.6611418 494.973286,101.596685 C499.622143,106.532228 506.035619,109 514.213713,109 Z M631.491857,109 C640.042345,109 647.090391,107.809181 652.635993,105.427543 C658.181596,103.045905 662.737785,99.7043204 666.30456,95.4027903 C669.871336,91.1012601 672.436482,86.009901 674,80.1287129 L674,80.1287129 L645.636808,76.9207921 C644.31759,81.0522052 642.326547,84.1143114 639.663681,86.1071107 C637.000814,88.09991 633.714984,89.0963096 629.806189,89.0963096 C625.115635,89.0963096 621.2557,87.4437444 618.226384,84.1386139 C615.197068,80.8334833 613.68241,75.9972997 613.68241,69.630063 C613.68241,62.4851485 615.209283,57.1507651 618.263029,53.6269127 C621.316775,50.1030603 625.311075,48.3411341 630.245928,48.3411341 C634.154723,48.3411341 637.269544,49.179568 639.590391,50.8564356 C641.911238,52.5333033 643.511401,55.0243024 644.390879,58.3294329 L644.390879,58.3294329 L672.460912,54.6111611 C669.773616,45.9108911 665.095277,39.3006301 658.425896,34.780378 C651.756515,30.260126 642.070033,28 629.36645,28 C620.278502,28 612.827362,29.1908191 607.013029,31.5724572 C603.348534,33.0792079 599.781759,35.3757876 596.312704,38.4621962 C592.843648,41.5486049 590.107492,45.0360036 588.104235,48.9243924 C585.368078,54.2223222 584,60.8568857 584,68.8280828 C584,76.4590459 585.123779,82.5832583 587.371336,87.2007201 C589.618893,91.8181818 592.721498,95.840234 596.679153,99.2668767 C600.636808,102.693519 605.364007,105.172367 610.860749,106.70342 C616.357492,108.234473 623.234528,109 631.491857,109 Z M720.478043,109 C726.833542,109 733.674195,108.195302 741,106.585906 L741,106.585906 L738.816813,86.0295302 C734.887077,87.2975391 731.830615,87.9315436 729.647428,87.9315436 C727.221665,87.9315436 725.52363,87.1024609 724.553325,85.4442953 C723.922627,84.3713647 723.607277,82.1767338 723.607277,78.8604027 L723.607277,78.8604027 L723.607277,51.2812081 L739.908407,51.2812081 L739.908407,29.5543624 L723.607277,29.5543624 L723.607277,0 L693.915935,15.2892617 L693.915935,29.5543624 L683,29.5543624 L683,51.2812081 L693.915935,51.2812081 L693.915935,78.6409396 C693.915935,87.3219239 694.752823,93.6010067 696.4266,97.4781879 C698.100376,101.355369 700.683814,104.244966 704.176913,106.14698 C707.670013,108.048993 713.103722,109 720.478043,109 Z M785,20 L785,0 L756,0 L756,20 L785,20 Z M785,107 L785,29 L756,29 L756,107 L785,107 Z M845.354098,109 C859.312022,109 870.242486,105.193243 878.145492,97.5797297 C886.048497,89.9662162 890,80.2 890,68.2810811 C890,57.6756757 886.814481,48.7486486 880.443443,41.5 C872.51612,32.5 860.795355,28 845.281148,28 C831.712295,28 820.939891,31.8310811 812.963934,39.4932432 C804.987978,47.1554054 801,56.8972973 801,68.7189189 C801,81.4162162 805.717486,91.6810811 815.152459,99.5135135 C822.836612,105.837838 832.903825,109 845.354098,109 Z M845.53598,89 C841.362283,89 837.896195,87.3663664 835.137717,84.0990991 C832.379239,80.8318318 831,75.7867868 831,68.963964 C831,62.2372372 832.391232,57.2282282 835.173697,53.9369369 C837.956162,50.6456456 841.482217,49 845.751861,49 C849.781638,49 853.163772,50.6216216 855.898263,53.8648649 C858.632754,57.1081081 860,62.045045 860,68.6756757 C860,75.7867868 858.644748,80.951952 855.934243,84.1711712 C853.223739,87.3903904 849.757651,89 845.53598,89 Z M933.718611,108 L933.718611,70.4309392 C933.718611,63.3100061 934.838231,58.3744629 937.077471,55.6243094 C939.316711,52.8741559 942.237459,51.4990792 945.839715,51.4990792 C949.101217,51.4990792 951.632532,52.5181093 953.43366,54.5561694 C955.234788,56.5942296 956.135352,60.0687538 956.135352,64.9797422 L956.135352,64.9797422 L956.135352,108 L986,108 L986,58.2762431 C986,47.9631676 983.675571,40.3388582 979.026714,35.4033149 C974.377857,30.4677716 967.940042,28 959.713268,28 C953.628376,28 948.468388,29.1172498 944.233304,31.3517495 C939.998219,33.5862492 935.811814,37.3063229 931.674087,42.5119705 L931.674087,42.5119705 L931.674087,29.7679558 L904,29.7679558 L904,108 L933.718611,108 Z" id="Introduction备份" fill="#2ECC4F"></path>
    </g>
</svg>