<?xml version="1.0" encoding="UTF-8"?>
<svg width="773px" height="413px" viewBox="0 0 773 413" version="1.1" xmlns="http://www.w3.org/2000/svg" xmlns:xlink="http://www.w3.org/1999/xlink">
    <title>编组 5</title>
    <g id="第三页" stroke="none" stroke-width="1" fill="none" fill-rule="evenodd">
        <g id="产品" transform="translate(-755.000000, -1400.000000)">
            <g id="编组-5" transform="translate(755.994580, 1401.445035)">
                <rect id="矩形备份-16" stroke="#2ECC4F" stroke-width="1.53387534" x="-8.52651283e-14" y="-9.59232693e-14" width="308.308943" height="30.7092199"></rect>
                <rect id="矩形备份-17" stroke="#2ECC4F" stroke-width="1.53387534" x="325.563539" y="-9.59232693e-14" width="299.105691" height="30.7092199"></rect>
                <rect id="矩形备份-18" stroke="#2ECC4F" stroke-width="1.53387534" x="651.130081" y="-9.59232693e-14" width="118.875339" height="30.7092199"></rect>
                <text id="绘图集群（独家定制高速度P盘神器）备份" font-family="PingFangSC-Semibold, PingFang SC" font-size="15.3387534" font-weight="500" line-spacing="30.6775068" fill="#FFFFFF">
                    <tspan x="26.4210027" y="16.783587">绘图集群（独家定制高速度P盘神器）</tspan>
                </text>
                <text id="存储集群（72/84盘位大容量存储服务器备份" font-family="PingFangSC-Semibold, PingFang SC" font-size="15.3387534" font-weight="500" line-spacing="30.6775068" fill="#FFFFFF">
                    <tspan x="335.128753" y="16.783587">存储集群（72/84盘位大容量存储服务器）</tspan>
                </text>
                <text id="有效算力-XCH备份" font-family="PingFangSC-Semibold, PingFang SC" font-size="15.3387534" font-weight="500" line-spacing="30.6775068" fill="#FFFFFF">
                    <tspan x="660.98523" y="16.783587">有效算力 XCH</tspan>
                </text>
                <rect id="矩形备份-19" stroke="#48C9FA" stroke-width="1.53387534" x="13.0379404" y="81.3794326" width="124.243902" height="30.7092199"></rect>
                <rect id="矩形备份-20" stroke="#48C9FA" stroke-width="1.53387534" x="13.0379404" y="264.099291" width="124.243902" height="36.8510638"></rect>
                <rect id="矩形备份-21" stroke="#48C9FA" stroke-width="1.53387534" x="170.260163" y="264.099291" width="124.243902" height="36.8510638"></rect>
                <rect id="矩形备份-22" stroke="#48C9FA" stroke-width="1.53387534" x="170.260163" y="81.3794326" width="124.243902" height="30.7092199"></rect>
                <rect id="矩形备份-24" stroke="#036B26" stroke-width="2.14742547" x="651.130081" y="67.5602837" width="118.875339" height="245.673759"></rect>
                <rect id="矩形备份-25" stroke="#CC7B2E" stroke-width="1.53387534" x="13.0379404" y="180.416667" width="49.0840108" height="30.7092199"></rect>
                <rect id="矩形备份-26" stroke="#CC7B2E" stroke-width="1.53387534" x="170.260163" y="179.648936" width="49.0840108" height="30.7092199"></rect>
                <rect id="矩形备份-27" stroke="#CC7B2E" stroke-width="1.53387534" x="346.655827" y="181.184397" width="108.905149" height="30.7092199"></rect>
                <rect id="矩形备份-28" stroke="#CC7B2E" stroke-width="1.53387534" x="493.907859" y="181.184397" width="108.905149" height="30.7092199"></rect>
                <rect id="矩形备份-29" stroke="#CC7B2E" stroke-width="1.53387534" x="80.5284553" y="179.648936" width="49.0840108" height="30.7092199"></rect>
                <rect id="矩形备份-30" stroke="#CC7B2E" stroke-width="1.53387534" x="237.750678" y="179.648936" width="49.0840108" height="30.7092199"></rect>
                <path id="路径-24备份-2" d="M38.073882,112.088652 L38.073,167.547 L43.1416327,167.547872 L37.3069443,179.547872 L31.472256,167.547872 L36.54,167.547 L36.5400067,112.088652 L38.073882,112.088652 Z" fill="#9BB9A5" fill-rule="nonzero"></path>
                <path id="路径-24备份-3" d="M192.995291,112.088652 L192.995,167.547 L198.063042,167.547872 L192.228354,179.547872 L186.393665,167.547872 L191.461,167.547 L191.461416,112.088652 L192.995291,112.088652 Z" fill="#9BB9A5" fill-rule="nonzero"></path>
                <path id="路径-25备份-2" d="M105.837398,162.95663 L105.837,167.337 L110.905149,167.33777 L105.070461,179.33777 L99.2357724,167.33777 L104.303,167.337 L104.303,164.49 L70.408,164.49 L70.4085783,197.502917 L62.8888889,197.502917 L62.8888889,195.969042 L68.874,195.969 L68.874703,162.95663 L105.837398,162.95663 Z" fill="#9BB9A5" fill-rule="nonzero"></path>
                <path id="路径-25备份-3" d="M262.292683,162.95663 L262.292,167.337 L267.360434,167.33777 L261.525745,179.33777 L255.691057,167.33777 L260.758,167.337 L260.758,164.49 L226.863,164.49 L226.863863,197.502917 L219.344173,197.502917 L219.344173,195.969042 L225.329,195.969 L225.329988,162.95663 L262.292683,162.95663 Z" fill="#9BB9A5" fill-rule="nonzero"></path>
                <path d="M-1.27897692e-13,67.5602837 L150.319783,67.5602837 L150.319783,313.234043 L-1.27897692e-13,313.234043 L-1.27897692e-13,67.5602837 Z" id="矩形备份-119" stroke="#9BB9A5" stroke-width="1.53387534" stroke-dasharray="3.067750675678253"></path>
                <path d="M157.98916,67.5602837 L308.308943,67.5602837 L308.308943,313.234043 L157.98916,313.234043 L157.98916,67.5602837 Z" id="矩形备份-120" stroke="#9BB9A5" stroke-width="1.53387534" stroke-dasharray="3.067750675678253"></path>
                <path d="M336.685637,67.5602837 L465.531165,67.5602837 L465.531165,313.234043 L336.685637,313.234043 L336.685637,67.5602837 Z" id="矩形备份-121" stroke="#9BB9A5" stroke-width="1.53387534" stroke-dasharray="3.067750675678253"></path>
                <path d="M483.937669,67.5602837 L612.783198,67.5602837 L612.783198,313.234043 L483.937669,313.234043 L483.937669,67.5602837 Z" id="矩形备份-122" stroke="#9BB9A5" stroke-width="1.53387534" stroke-dasharray="3.067750675678253"></path>
                <text id="chia应用程序备份-2" font-family="PingFangSC-Regular, PingFang SC" font-size="15.3387534" font-weight="normal" line-spacing="30.6775068" fill="#FFFFFF">
                    <tspan x="30.1559892" y="97.3952892">chia应用程序</tspan>
                </text>
                <text id="临时备份-2" font-family="PingFangSC-Regular, PingFang SC" font-size="15.3387534" font-weight="normal" line-spacing="30.6775068" fill="#FFFFFF">
                    <tspan x="22.2411924" y="196.432523">临时</tspan>
                </text>
                <text id="Win10-操作系统备份-2" font-family="PingFangSC-Regular, PingFang SC" font-size="15.3387534" font-weight="normal" line-spacing="30.6775068" fill="#FFFFFF">
                    <tspan x="20.868374" y="283.186069">Win10 操作系统</tspan>
                </text>
                <text id="Win10-操作系统备份-3" font-family="PingFangSC-Regular, PingFang SC" font-size="15.3387534" font-weight="normal" line-spacing="30.6775068" fill="#FFFFFF">
                    <tspan x="178.090596" y="279.347417">Win10 操作系统</tspan>
                </text>
                <text id="临时备份-3" font-family="PingFangSC-Regular, PingFang SC" font-size="15.3387534" font-weight="normal" line-spacing="30.6775068" fill="#FFFFFF">
                    <tspan x="179.463415" y="195.664793">临时</tspan>
                </text>
                <text id="临时文件备份" font-family="PingFangSC-Regular, PingFang SC" font-size="15.3387534" font-weight="normal" line-spacing="30.6775068" fill="#FFFFFF">
                    <tspan x="370.430894" y="197.200254">临时文件</tspan>
                </text>
                <text id="永久数据备份" font-family="PingFangSC-Regular, PingFang SC" font-size="15.3387534" font-weight="normal" line-spacing="30.6775068" fill="#FFFFFF">
                    <tspan x="517.682927" y="197.967984">永久数据</tspan>
                </text>
                <text id="永久备份-2" font-family="PingFangSC-Regular, PingFang SC" font-size="15.3387534" font-weight="normal" line-spacing="30.6775068" fill="#FFFFFF">
                    <tspan x="89.7317073" y="196.432523">永久</tspan>
                </text>
                <text id="永久备份-3" font-family="PingFangSC-Regular, PingFang SC" font-size="15.3387534" font-weight="normal" line-spacing="30.6775068" fill="#FFFFFF">
                    <tspan x="246.95393" y="194.897062">永久</tspan>
                </text>
                <text id="chia应用程序备份-3" font-family="PingFangSC-Regular, PingFang SC" font-size="15.3387534" font-weight="normal" line-spacing="30.6775068" fill="#FFFFFF">
                    <tspan x="186.994743" y="97.3952892">chia应用程序</tspan>
                </text>
                <text id="SSD-文件存储备份" font-family="PingFangSC-Semibold, PingFang SC" font-size="15.3387534" font-weight="500" fill="#12F6A3">
                    <tspan x="352.369512" y="93.5516346">SSD 文件存储</tspan>
                </text>
                <text id="HDD-文件存储备份" font-family="PingFangSC-Semibold, PingFang SC" font-size="15.3387534" font-weight="500" fill="#12F6A3">
                    <tspan x="498.82393" y="93.5516346">HDD 文件存储</tspan>
                </text>
                <text id="Chia-全节点-钱包备份" font-family="PingFangSC-Semibold, PingFang SC" font-size="15.3387534" font-weight="500" fill="#12F6A3">
                    <tspan x="696.716856" y="152.688592">Chia</tspan>
                    <tspan x="690.243902" y="173.688592">全节点</tspan>
                    <tspan x="697.913279" y="194.688592">钱包</tspan>
                </text>
                <path id="路径-26备份" d="M641.375277,190.790936 L653.419434,196.533922 L641.464288,202.459973 L641.425,197.392 L613.767,197.603 L613.806699,202.670944 L601.762543,196.927957 L613.717688,191.001906 L613.756,196.069 L641.414,195.858 L641.375277,190.790936 Z" fill="#9BB9A5" fill-rule="nonzero"></path>
                <path d="M-5.68434189e-14,329.356383 L770.00542,329.356383 L770.00542,409.968085 L-5.68434189e-14,409.968085 L-5.68434189e-14,329.356383 Z" id="矩形备份-31" stroke="#9BB9A5" stroke-width="1.53387534" stroke-dasharray="3.067750675678253"></path>
                <rect id="矩形备份-32" stroke="#2ECC4F" stroke-width="1.53387534" x="14.8220485" y="351.620567" width="278.395338" height="36.8510638"></rect>
                <rect id="矩形备份-33" stroke="#2ECC4F" stroke-width="1.53387534" x="326.82617" y="351.620567" width="118.837413" height="36.8510638"></rect>
                <rect id="矩形备份-34" stroke="#2ECC4F" stroke-width="1.53387534" x="480.234372" y="351.620567" width="118.837413" height="36.8510638"></rect>
                <rect id="矩形备份-35" stroke="#2ECC4F" stroke-width="1.53387534" x="632.901471" y="351.620567" width="118.837413" height="36.8510638"></rect>
                <text id="云上算力（公有云）备份" font-family="PingFangSC-Semibold, PingFang SC" font-size="15.3387534" font-weight="500" line-spacing="30.6775068" fill="#FFFFFF">
                    <tspan x="91.7948361" y="370.707346">云上算力（公有云）</tspan>
                </text>
                <text id="VPC备份" font-family="PingFangSC-Semibold, PingFang SC" font-size="15.3387534" font-weight="500" line-spacing="30.6775068" fill="#FFFFFF">
                    <tspan x="370.052268" y="370.707346">VPC</tspan>
                </text>
                <text id="云监管备份" font-family="PingFangSC-Semibold, PingFang SC" font-size="15.3387534" font-weight="500" line-spacing="30.6775068" fill="#FFFFFF">
                    <tspan x="515.773333" y="370.707346">云监管</tspan>
                </text>
                <text id="控制台备份" font-family="PingFangSC-Semibold, PingFang SC" font-size="15.3387534" font-weight="500" line-spacing="30.6775068" fill="#FFFFFF">
                    <tspan x="669.181535" y="370.707346">控制台</tspan>
                </text>
                <text id="读写速度更快备份" font-family="PingFangSC-Regular, PingFang SC" font-size="15.3387534" font-weight="normal" line-spacing="30.6775068" fill="#FFFFFF">
                    <tspan x="355.092141" y="111.982169">读写速度更快</tspan>
                </text>
                <text id="读写次数无限备份" font-family="PingFangSC-Regular, PingFang SC" font-size="15.3387534" font-weight="normal" line-spacing="30.6775068" fill="#FFFFFF">
                    <tspan x="502.344173" y="111.982169">读写次数无限</tspan>
                </text>
                <path id="路径-2" d="M407.243902,211.994681 L413.078591,223.994681 L408.01,223.994 L408.01084,245.274053 L36.8130081,245.274053 L36.8130081,212.661348 L38.3468835,212.661348 L38.346,243.74 L406.476,243.74 L406.476,223.994 L401.409214,223.994681 L407.243902,211.994681 Z" fill="#9BB9A5" fill-rule="nonzero"></path>
                <path id="路径-4" d="M375.799458,211.994681 L381.634146,223.994681 L376.566,223.994 L376.566396,229.351169 L194.03523,229.351169 L194.03523,212.661348 L195.569106,212.661348 L195.569,227.817 L375.032,227.817 L375.032,223.994 L369.96477,223.994681 L375.799458,211.994681 Z" fill="#9BB9A5" fill-rule="nonzero"></path>
                <path id="路径-5" d="M539.548401,155.600814 L539.548,169.083 L544.616152,169.083333 L538.781463,181.083333 L532.946775,169.083333 L538.014,169.083 L538.014,157.134 L115.786,157.134 L115.786072,178.881206 L114.252196,178.881206 L114.252196,155.600814 L539.548401,155.600814 Z" fill="#9BB9A5" fill-rule="nonzero"></path>
                <path id="路径-6" d="M566,135.889091 L566,168.896 L571.067751,168.89644 L565.233062,180.89644 L559.398374,168.89644 L564.466,168.896 L564.466,137.422 L273.029,137.422 L273.02981,178.881206 L271.495935,178.881206 L271.495935,135.889091 L566,135.889091 Z" fill="#9BB9A5" fill-rule="nonzero"></path>
            </g>
        </g>
    </g>
</svg>